<?xml version="1.0" encoding="utf-8"?>
<!DOCTYPE svg PUBLIC "-//W3C//DTD SVG 1.1//EN" "http://www.w3.org/Graphics/SVG/1.1/DTD/svg11.dtd">
<svg xmlns="http://www.w3.org/2000/svg" xmlns:xlink="http://www.w3.org/1999/xlink" style="display: none">
    <symbol id="svg-pdf" viewBox="0 0 482.14 482.14">
  <path d="M142.024 310.194c0-8.007-5.556-12.782-15.36-12.782-4.002 0-6.713.395-8.13.773v25.69c1.678.378 3.742.504 6.587.504 10.45 0 16.904-5.28 16.904-14.186zM202.71 297.68c-4.39 0-7.228.38-8.906.773v56.896c1.68.393 4.39.393 6.84.393 17.81.126 29.425-9.677 29.425-30.45.125-18.062-10.46-27.612-27.36-27.612z"/>
  <path d="M315.458 0H121.81C93.52 0 70.497 23.04 70.497 51.315V241.07h-5.012c-11.418 0-20.678 9.25-20.678 20.678v125.404c0 11.427 9.26 20.677 20.678 20.677h5.012v22.994c0 28.305 23.025 51.315 51.315 51.315h264.224c28.272 0 51.3-23.012 51.3-51.316V121.45L315.458 0zM99.053 284.38c6.06-1.025 14.578-1.797 26.58-1.797 12.127 0 20.77 2.315 26.58 6.965 5.547 4.382 9.29 11.615 9.29 20.127 0 8.51-2.836 15.745-7.998 20.646-6.714 6.32-16.643 9.158-28.258 9.158-2.585 0-4.902-.128-6.714-.38v31.097h-19.48V284.38zm286.98 166.333H121.812c-10.953 0-19.873-8.92-19.873-19.89V407.83h246.31c11.42 0 20.68-9.25 20.68-20.678V261.748c0-11.428-9.26-20.68-20.68-20.68h-246.31V51.316c0-10.938 8.92-19.858 19.874-19.858l181.89-.19V98.5c0 19.638 15.935 35.587 35.588 35.587l65.862-.19.74 296.926c0 10.97-8.903 19.89-19.856 19.89zM174.066 369.8v-85.42c7.225-1.15 16.642-1.797 26.58-1.797 16.516 0 27.226 2.963 35.618 9.282 9.03 6.714 14.704 17.416 14.704 32.78 0 16.644-6.06 28.134-14.453 35.225-9.157 7.612-23.096 11.222-40.125 11.222-10.2 0-17.424-.646-22.325-1.29zm140.827-50.574v15.996h-31.23v34.973h-19.74V283.23h53.16v16.12h-33.42v19.876h31.23z"/>
</symbol>
<symbol id="svg-home" viewBox="0 0 495.398 495.398">
  <path d="M487.083 225.514l-75.08-75.08v-86.73c0-15.682-12.708-28.39-28.413-28.39-15.67 0-28.377 12.708-28.377 28.39v29.94L299.31 37.74c-27.64-27.624-75.694-27.575-103.27.05L8.312 225.514c-11.082 11.104-11.082 29.07 0 40.158 11.087 11.1 29.09 11.1 40.172 0l187.71-187.73c6.115-6.082 16.893-6.082 22.976-.017l187.742 187.747c5.567 5.55 12.825 8.312 20.08 8.312 7.272 0 14.542-2.764 20.092-8.312 11.086-11.086 11.086-29.053 0-40.158z"/>
  <path d="M257.56 131.836c-5.453-5.45-14.284-5.45-19.722 0L72.712 296.913c-2.607 2.606-4.085 6.164-4.085 9.877v120.4c0 28.254 22.908 51.16 51.16 51.16h81.754V351.74h92.3v126.61h81.755c28.25 0 51.16-22.906 51.16-51.158V306.79c0-3.713-1.466-7.27-4.086-9.877L257.56 131.836z"/>
</symbol>
<symbol id="svg-link" viewBox="0 0 80 80">
  <path d="M29.298 63.47l-4.048 4.02c-3.51 3.48-9.216 3.482-12.723 0-1.686-1.672-2.612-3.894-2.612-6.256s.927-4.585 2.61-6.258l14.9-14.783c3.09-3.062 8.898-7.57 13.132-3.372 1.943 1.93 5.08 1.918 7.01-.024 1.93-1.942 1.918-5.08-.025-7.01-7.197-7.14-17.834-5.82-27.098 3.37l-14.9 14.785C1.967 51.49 0 56.21 0 61.235s1.968 9.743 5.544 13.292C9.224 78.176 14.054 80 18.887 80c4.834 0 9.667-1.824 13.348-5.476l4.05-4.02c1.943-1.93 1.954-5.067.024-7.01-1.928-1.94-5.07-1.952-7.012-.023zM74.454 6.045c-7.73-7.67-18.538-8.086-25.694-.986l-5.046 5.01c-1.943 1.928-1.955 5.065-.025 7.008s5.067 1.954 7.01.025l5.044-5.005c3.707-3.68 8.56-2.155 11.727.986 1.69 1.674 2.616 3.897 2.616 6.26 0 2.362-.928 4.585-2.613 6.258l-15.897 15.77c-7.27 7.212-10.68 3.827-12.134 2.383-1.943-1.928-5.08-1.916-7.01.026s-1.918 5.08.025 7.01c3.337 3.31 7.146 4.953 11.14 4.953 4.888 0 10.052-2.463 14.962-7.338l15.896-15.77C78.03 29.082 80 24.362 80 19.338c0-5.022-1.97-9.743-5.546-13.294z"/>
</symbol>
<symbol id="svg-facebook" viewBox="0 0 510 510">
  <path d="M459 0H51C22.95 0 0 22.95 0 51v408c0 28.05 22.95 51 51 51h408c28.05 0 51-22.95 51-51V51c0-28.05-22.95-51-51-51zm-25.5 51v76.5h-51c-15.3 0-25.5 10.2-25.5 25.5v51h76.5v76.5H357V459h-76.5V280.5h-51V204h51v-63.75C280.5 91.8 321.3 51 369.75 51h63.75z"/>
</symbol>
<symbol id="svg-github-square" viewBox="0 0 1792 1792">
  <path d="M522 1352q-8 9-20-3-13-11-4-19 8-9 20 3 12 11 4 19zm-42-61q9 12 0 19-8 6-17-7t0-18q9-7 17 6zm-61-60q-5 7-13 2-10-5-7-12 3-5 13-2 10 5 7 12zm31 34q-6 7-16-3-9-11-2-16 6-6 16 3 9 11 2 16zm129 112q-4 12-19 6-17-4-13-15t19-7q16 5 13 16zm63 5q0 11-16 11-17 2-17-11 0-11 16-11 17-2 17 11zm58-10q2 10-14 14t-18-8 14-15q16-2 18 9zm964-956v960q0 119-84.5 203.5T1376 1664h-224q-16 0-24.5-1t-19.5-5-16-14.5-5-27.5v-239q0-97-52-142 57-6 102.5-18t94-39 81-66.5 53-105T1386 856q0-121-79-206 37-91-8-204-28-9-81 11t-92 44l-38 24q-93-26-192-26t-192 26q-16-11-42.5-27T578 459.5 492 446q-44 113-7 204-79 85-79 206 0 85 20.5 150t52.5 105 80.5 67 94 39 102.5 18q-40 36-49 103-21 10-45 15t-57 5-65.5-21.5T484 1274q-19-32-48.5-52t-49.5-24l-20-3q-21 0-29 4.5t-5 11.5 9 14 13 12l7 5q22 10 43.5 38t31.5 51l10 23q13 38 44 61.5t67 30 69.5 7 55.5-3.5l23-4q0 38 .5 103t.5 68q0 22-11 33.5t-22 13-33 1.5H416q-119 0-203.5-84.5T128 1376V416q0-119 84.5-203.5T416 128h960q119 0 203.5 84.5T1664 416z"/>
</symbol>
<symbol id="svg-google-plus-square" viewBox="0 0 1792 1792">
  <path d="M957 1218q0 76-58.5 112.5T759 1367q-41 0-80.5-9.5T603 1329t-58-53-22-78q0-46 25-80t65.5-51.5 82-25 84.5-7.5q20 0 31 2 2 1 23 16.5t26 19 23 18 24.5 22 19 22.5 17 26 9 26.5 4.5 31.5zm-74-545q0 60-33 99.5T758 812q-53 0-93-42.5T607.5 673 590 567q0-61 32-104t92-43q53 0 93.5 45t58 101T883 673zm106-257l88-64H812q-85 0-161 32t-127.5 98T472 635q0 93 64.5 154.5T695 851q22 0 43-3-13 29-13 54 0 44 40 94-175 12-257 63-47 29-75.5 73t-28.5 95q0 43 18.5 77.5T471 1361t69 37 77.5 21 76.5 6q60 0 120.5-15.5t113.5-46 86-82.5 33-117q0-49-20-89.5t-49-66.5-58-47.5-49-44-20-44.5 15.5-42.5T904 790t44-42 37.5-59.5T1001 606q0-60-22.5-99.5T906 416h83zm291 448h128v-64h-128V672h-64v128h-128v64h128v160h64V864zm384-448v960q0 119-84.5 203.5T1376 1664H416q-119 0-203.5-84.5T128 1376V416q0-119 84.5-203.5T416 128h960q119 0 203.5 84.5T1664 416z"/>
</symbol>
<symbol id="svg-google-plus" viewBox="0 0 510 510">
  <path d="M234.6 175.95c0-25.5-15.3-76.5-53.55-76.5-15.3 0-33.15 10.2-33.15 43.35 0 30.6 15.3 73.95 51 73.95 0 0 35.7-2.55 35.7-40.8zM219.3 300.9h-7.65c-7.65 0-30.6 2.55-45.9 7.65-17.85 5.1-38.25 17.85-38.25 43.35 0 28.05 25.5 56.1 76.5 56.1 38.25 0 61.2-25.5 61.2-51 0-17.85-12.75-30.6-45.9-56.1zM459 0H51C22.95 0 0 22.95 0 51v408c0 28.05 22.95 51 51 51h408c28.05 0 51-22.95 51-51V51c0-28.05-22.95-51-51-51zM181.05 438.6c-71.4 0-104.55-40.8-104.55-76.5 0-12.75 2.55-40.8 38.25-61.2 20.4-12.75 45.9-20.4 79.05-22.95-5.1-5.1-7.65-12.75-7.65-25.5 0-5.1 0-7.65 2.55-12.75h-10.2c-51 0-81.6-38.25-81.6-76.5 0-43.35 33.15-91.8 104.55-91.8h107.1l-7.65 7.65-17.85 17.85-2.55 2.55h-17.85c10.2 10.2 22.95 28.05 22.95 56.1 0 35.7-17.85 53.55-40.8 68.85-5.1 2.55-10.2 10.2-10.2 17.85s5.1 12.75 10.2 15.3c2.55 2.55 7.65 5.1 12.75 7.65 20.4 15.3 48.45 33.15 48.45 73.95 0 45.9-33.15 99.45-124.95 99.45zM433.5 255h-51v51H357v-51h-51v-25.5h51v-51h25.5v51h51V255z"/>
</symbol>
<symbol id="svg-linkedin-square" viewBox="0 0 1792 1792">
  <path d="M365 1414h231V720H365v694zm246-908q-1-52-36-86t-93-34-94.5 34-36.5 86q0 51 35.5 85.5T479 626h1q59 0 95-34.5t36-85.5zm585 908h231v-398q0-154-73-233t-193-79q-136 0-209 117h2V720H723q3 66 0 694h231v-388q0-38 7-56 15-35 45-59.5t74-24.5q116 0 116 157v371zm468-998v960q0 119-84.5 203.5T1376 1664H416q-119 0-203.5-84.5T128 1376V416q0-119 84.5-203.5T416 128h960q119 0 203.5 84.5T1664 416z"/>
</symbol>
<symbol id="svg-linkedin" viewBox="0 0 510 510">
  <path d="M459 0H51C22.95 0 0 22.95 0 51v408c0 28.05 22.95 51 51 51h408c28.05 0 51-22.95 51-51V51c0-28.05-22.95-51-51-51zM153 433.5H76.5V204H153v229.5zm-38.25-272.85c-25.5 0-45.9-20.4-45.9-45.9s20.4-45.9 45.9-45.9 45.9 20.4 45.9 45.9-20.4 45.9-45.9 45.9zM433.5 433.5H357V298.35c0-20.4-17.85-38.25-38.25-38.25s-38.25 17.85-38.25 38.25V433.5H204V204h76.5v30.6c12.75-20.4 40.8-35.7 63.75-35.7 48.45 0 89.25 40.8 89.25 89.25V433.5z"/>
</symbol>
<symbol id="svg-stack-overflow" viewBox="0 0 1792 1792">
  <path d="M1120 1401v151l-707 1v-151zm241-346v701l-1 35v1H228l-35-1h-1v-736h121v618h928v-618h120zm-928 88l704 65-13 150-705-65zm68-316l683 183-39 146-683-183zm163-349l609 360-77 130-609-360zm360-331l398 585-124 85-399-584zM1477 0l121 697-149 26-121-697z"/>
</symbol>
<symbol id="svg-twitter-square" viewBox="0 0 1792 1792">
  <path d="M1408 610q-56 25-121 34 68-40 93-117-65 38-134 51-61-66-153-66-87 0-148.5 61.5T883 722q0 29 5 48-129-7-242-65T454 550q-29 50-29 106 0 114 91 175-47-1-100-26v2q0 75 50 133.5t123 72.5q-29 8-51 8-13 0-39-4 21 63 74.5 104t121.5 42q-116 90-261 90-26 0-50-3 148 94 322 94 112 0 210-35.5t168-95 120.5-137 75-162T1304 746q0-18-1-27 63-45 105-109zm256-194v960q0 119-84.5 203.5T1376 1664H416q-119 0-203.5-84.5T128 1376V416q0-119 84.5-203.5T416 128h960q119 0 203.5 84.5T1664 416z"/>
</symbol>
<symbol id="svg-twitter" viewBox="0 0 510 510">
  <path d="M459 0H51C22.95 0 0 22.95 0 51v408c0 28.05 22.95 51 51 51h408c28.05 0 51-22.95 51-51V51c0-28.05-22.95-51-51-51zm-58.65 186.15c-2.55 117.3-76.5 198.9-188.7 204-45.9 2.55-79.05-12.75-109.65-30.6 33.15 5.1 76.5-7.65 99.45-28.05-33.15-2.55-53.55-20.4-63.75-48.45 10.2 2.55 20.4 0 28.05 0-30.6-10.2-51-28.05-53.55-68.85 7.65 5.1 17.85 7.65 28.05 7.65-22.95-12.75-38.25-61.2-20.4-91.8 33.15 35.7 73.95 66.3 140.25 71.4-17.85-71.4 79.05-109.65 117.3-61.2 17.85-2.55 30.6-10.2 43.35-15.3-5.1 17.85-15.3 28.05-28.05 38.25 12.75-2.55 25.5-5.1 35.7-10.2-2.55 12.75-15.3 22.95-28.05 33.15z"/>
</symbol>

</svg>